<svg xmlns="http://www.w3.org/2000/svg" width="71.261" height="62.31" viewBox="0 0 71.261 62.31">
  <g id="Group_143" data-name="Group 143" transform="translate(-626 -501)">
    <path id="Path_480" data-name="Path 480" d="M678.249,537.619H645.023a1.081,1.081,0,0,1-1.077-1.074V519a8.893,8.893,0,0,0-8.889-8.879A6.894,6.894,0,0,0,628.163,517a5.3,5.3,0,0,0,5.294,5.3,4.028,4.028,0,0,0,4.028-4.028,3.01,3.01,0,0,0-3-3,1.076,1.076,0,1,1,0-2.151,5.167,5.167,0,0,1,5.167,5.156,6.193,6.193,0,0,1-6.19,6.19A7.47,7.47,0,0,1,626,517a9.061,9.061,0,0,1,9.057-9.046A11.058,11.058,0,0,1,646.1,519v16.459h31.066V519a11.06,11.06,0,0,1,11.052-11.041A9.057,9.057,0,0,1,697.261,517a7.47,7.47,0,0,1-7.453,7.467,6.189,6.189,0,0,1-6.179-6.19,5.156,5.156,0,0,1,5.156-5.156,1.076,1.076,0,1,1,0,2.151,3.01,3.01,0,0,0-3,3,4.026,4.026,0,0,0,4.028,4.028A5.307,5.307,0,0,0,695.1,517a6.894,6.894,0,0,0-6.886-6.884A8.893,8.893,0,0,0,679.326,519v17.547a1.081,1.081,0,0,1-1.077,1.074Zm0,0" transform="translate(0 11.824)" fill="#b79167"/>
    <path id="Path_481" data-name="Path 481" d="M682.65,538.95H632.825a4.468,4.468,0,0,1-4.462-4.459V514.35a1.081,1.081,0,0,1,2.162,0v20.141a2.3,2.3,0,0,0,2.3,2.3H682.65a2.3,2.3,0,0,0,2.3-2.3V514.35a1.081,1.081,0,0,1,2.162,0v20.141a4.468,4.468,0,0,1-4.459,4.459Zm0,0" transform="translate(4.016 20.858)" fill="#b79167"/>
    <path id="Path_482" data-name="Path 482" d="M666.95,516.917H633.725a1.08,1.08,0,0,1,0-2.16H666.95a1.08,1.08,0,0,1,0,2.16Zm0,0" transform="translate(11.298 23.382)" fill="#b79167"/>
    <path id="Path_483" data-name="Path 483" d="M633.725,527.109a1.082,1.082,0,0,1-1.077-1.077v-2.645a1.076,1.076,0,1,1,2.152,0v2.645a1.073,1.073,0,0,1-1.075,1.077Zm0,0" transform="translate(11.298 36.201)" fill="#b79167"/>
    <path id="Path_484" data-name="Path 484" d="M646.038,527.109a1.084,1.084,0,0,1-1.085-1.077v-2.645a1.081,1.081,0,1,1,2.162,0v2.645a1.082,1.082,0,0,1-1.077,1.077Zm0,0" transform="translate(32.211 36.201)" fill="#b79167"/>
    <path id="Path_485" data-name="Path 485" d="M678.669,521.943a1.077,1.077,0,0,1-1.077-1.088v-7.032a10.67,10.67,0,0,0-10.66-10.66H642.858a10.664,10.664,0,0,0-10.66,10.66v7.032a1.081,1.081,0,1,1-2.162,0v-7.032A12.838,12.838,0,0,1,642.858,501h24.074a12.828,12.828,0,0,1,12.812,12.823v7.032a1.077,1.077,0,0,1-1.074,1.088Zm0,0" transform="translate(6.857 0)" fill="#b79167"/>
  </g>
</svg>
