<svg xmlns="http://www.w3.org/2000/svg" width="69.17" height="69.397" viewBox="0 0 69.17 69.397">
  <path id="Path_516" data-name="Path 516" d="M80.663,22.928H57.569V20.619A4.632,4.632,0,0,0,52.95,16H20.619A4.632,4.632,0,0,0,16,20.619v25.4c0,12.7,12.124,12.7,16.166,12.7a1.155,1.155,0,1,0,0-2.309A4.632,4.632,0,0,1,27.547,51.8v-.462a4.857,4.857,0,0,1,4.85-4.157H48.331v2.309H37.939a1.091,1.091,0,0,0-1.155,1.155,10.367,10.367,0,0,0,2.771,7.044,11.162,11.162,0,0,0-.462,3.349,11.669,11.669,0,0,0,6.928,10.623c0,.693-.346,2.078-3.464,2.078a5.717,5.717,0,0,0-5.773,5.773v5.773h2.309V79.508a3.43,3.43,0,0,1,3.233-3.464l5.658,2.771a8.018,8.018,0,0,0,1.5.577v5.889H51.8V79.392a5.717,5.717,0,0,0,1.5-.462l5.658-2.771a3.43,3.43,0,0,1,3.233,3.464V85.4H64.5V79.623a5.717,5.717,0,0,0-5.773-5.773c-3.118,0-3.464-1.386-3.464-2.078A11.493,11.493,0,0,0,62.188,60.8v-.808a9.15,9.15,0,0,0-1.155-4.619h7.736a4.857,4.857,0,0,1,4.85,4.157,4.658,4.658,0,0,1-4.157,5.081H69a1.155,1.155,0,0,0,0,2.309c4.041,0,16.166,0,16.166-12.7V27.547A4.463,4.463,0,0,0,80.663,22.928ZM25.238,51.1a7.261,7.261,0,0,0,1.386,4.85c-5.658-1.155-8.314-4.272-8.314-9.93v-25.4a2.316,2.316,0,0,1,2.309-2.309H52.95a2.316,2.316,0,0,1,2.309,2.309V42.558a2.316,2.316,0,0,1-2.309,2.309H32.4A7.219,7.219,0,0,0,25.238,51.1ZM51.8,51.8a8.079,8.079,0,0,1,7.967,6.928H47.177A8.079,8.079,0,0,1,39.209,51.8Zm1.963,17.9a1.109,1.109,0,0,0-.808,1.039v.693a4.064,4.064,0,0,0,2.309,3.926l-3,1.5a4.219,4.219,0,0,1-3.349,0l-2.887-1.5a4.064,4.064,0,0,0,2.309-3.926v-.577a1.109,1.109,0,0,0-.808-1.039,9.35,9.35,0,0,1-6.12-8.776,7.1,7.1,0,0,1,.115-1.617,10.456,10.456,0,0,0,5.658,1.617h12.7A9.091,9.091,0,0,1,53.758,69.693ZM82.972,54.1c0,5.658-2.656,8.776-8.314,9.93a7.261,7.261,0,0,0,1.386-4.85,7.134,7.134,0,0,0-7.159-6.235H59.532A10.323,10.323,0,0,0,51.8,49.486H50.641V47.177H52.95a4.632,4.632,0,0,0,4.619-4.619V25.238H80.663a2.316,2.316,0,0,1,2.309,2.309V54.1Z" transform="translate(-16 -16)" fill="#B79167"/>
</svg>
