<svg xmlns="http://www.w3.org/2000/svg" xmlns:xlink="http://www.w3.org/1999/xlink" width="63.524" height="63.227" viewBox="0 0 63.524 63.227">
  <defs>
    <clipPath id="clip-path">
      <rect id="Rectangle_176" data-name="Rectangle 176" width="63.524" height="63.227" fill="#b79167"/>
    </clipPath>
  </defs>
  <g id="Group_167" data-name="Group 167" transform="translate(-425 -299)">
    <g id="Group_164" data-name="Group 164" transform="translate(425 299)">
      <g id="Group_163" data-name="Group 163" transform="translate(0)" clip-path="url(#clip-path)">
        <path id="Path_525" data-name="Path 525" d="M540.879,327l0,.04a6.855,6.855,0,0,0,3.913,6.54l.026.013A4.612,4.612,0,0,1,546.9,335.6l.01.019a7.163,7.163,0,0,0,6.733,3.757l.043,0a4.9,4.9,0,0,1,2.9.754,7.348,7.348,0,0,0,7.794,0,4.905,4.905,0,0,1,2.9-.754l.043,0a7.167,7.167,0,0,0,6.734-3.761l.006-.013a4.619,4.619,0,0,1,2.094-2.012l.02-.01a6.856,6.856,0,0,0,3.914-6.541l0-.038a4.388,4.388,0,0,1,.763-2.719,6.745,6.745,0,0,0,0-7.628,4.387,4.387,0,0,1-.763-2.717l0-.04a6.858,6.858,0,0,0-3.916-6.542l-.022-.012a4.6,4.6,0,0,1-2.085-2l-.013-.026a7.17,7.17,0,0,0-6.732-3.758l-.043,0a4.9,4.9,0,0,1-2.9-.753h0a7.348,7.348,0,0,0-7.794,0,4.907,4.907,0,0,1-2.9.753l-.043,0a7.165,7.165,0,0,0-6.732,3.757l-.01.018a4.61,4.61,0,0,1-2.09,2.011l-.024.012a6.856,6.856,0,0,0-3.913,6.541l0,.038a4.384,4.384,0,0,1-.763,2.718,6.745,6.745,0,0,0,0,7.629,4.385,4.385,0,0,1,.763,2.718Zm1.183-9a6.761,6.761,0,0,0,1.178-4.2l0-.04a4.5,4.5,0,0,1,2.583-4.277l.02-.01A6.965,6.965,0,0,0,549,306.438l.012-.022a4.8,4.8,0,0,1,4.513-2.495l.041,0a7.243,7.243,0,0,0,4.286-1.114,4.971,4.971,0,0,1,5.273,0,7.259,7.259,0,0,0,4.286,1.115l.042,0a4.787,4.787,0,0,1,4.51,2.49l.016.029a6.963,6.963,0,0,0,3.151,3.032l.02.01a4.5,4.5,0,0,1,2.586,4.279l0,.042A6.76,6.76,0,0,0,578.907,318a4.368,4.368,0,0,1,0,4.941,6.766,6.766,0,0,0-1.178,4.2l0,.04a4.5,4.5,0,0,1-2.586,4.279l-.017.008a6.973,6.973,0,0,0-3.157,3.041l-.009.017a4.793,4.793,0,0,1-4.513,2.495l-.041,0a7.258,7.258,0,0,0-4.287,1.115,4.972,4.972,0,0,1-5.272,0A7.247,7.247,0,0,0,553.963,337c-.133,0-.267,0-.4.011l-.041,0a4.791,4.791,0,0,1-4.514-2.5l-.012-.023a6.956,6.956,0,0,0-3.149-3.031l-.022-.011a4.5,4.5,0,0,1-2.586-4.278l0-.042a6.766,6.766,0,0,0-1.179-4.194,4.368,4.368,0,0,1,0-4.941Zm0,0" transform="translate(-522.064 -299.587)" fill="#b79167"/>
      </g>
    </g>
    <path id="Path_526" data-name="Path 526" d="M629.731,380.817a1.183,1.183,0,0,0,1.629-.377L645.371,358a1.183,1.183,0,1,0-2.007-1.252l-14.01,22.444a1.183,1.183,0,0,0,.377,1.63Zm0,0" transform="translate(-173.941 -48.71)" fill="#b79167"/>
    <path id="Path_527" data-name="Path 527" d="M611.364,371.877c2.88,0,5.223-2.672,5.223-5.956s-2.343-5.955-5.223-5.955-5.223,2.671-5.223,5.955,2.343,5.956,5.223,5.956Zm0-9.547c1.576,0,2.858,1.611,2.858,3.59s-1.282,3.591-2.858,3.591-2.857-1.612-2.857-3.591,1.282-3.59,2.857-3.59Zm0,0" transform="translate(-154.319 -51.938)" fill="#b79167"/>
    <g id="Group_166" data-name="Group 166" transform="translate(425 299)">
      <g id="Group_165" data-name="Group 165" transform="translate(0)" clip-path="url(#clip-path)">
        <path id="Path_528" data-name="Path 528" d="M692.254,445.588c0,3.284,2.343,5.956,5.222,5.956s5.224-2.672,5.224-5.956-2.343-5.955-5.223-5.955-5.223,2.671-5.223,5.955Zm8.08,0c0,1.98-1.282,3.59-2.858,3.59s-2.857-1.61-2.857-3.59S695.9,442,697.476,442s2.858,1.61,2.858,3.59Zm0,0" transform="translate(-652.681 -418.809)" fill="#b79167"/>
        <path id="Path_529" data-name="Path 529" d="M488.371,571.54a5.973,5.973,0,0,0-7.889-2.4l-9.265,4.377a7.547,7.547,0,0,0-6.433-3.969l-8.552-.235a9.046,9.046,0,0,1-3.887-1l-.871-.451a15.351,15.351,0,0,0-14.218.015l.054-1.971a1.183,1.183,0,0,0-1.15-1.215l-9.378-.258a1.182,1.182,0,0,0-1.215,1.149L425,586.154a1.183,1.183,0,0,0,1.15,1.215l9.378.258h.033a1.184,1.184,0,0,0,1.182-1.151l.026-.984,2.436-1.3a4.179,4.179,0,0,1,3.12-.341l14.548,4.083c.025.008.051.013.077.019a15.551,15.551,0,0,0,3.2.33,15.771,15.771,0,0,0,6.592-1.438,1.105,1.105,0,0,0,.146-.08l21.095-13.645a1.182,1.182,0,0,0,.388-1.575Zm-60.973,13.5.5-18.215,7.014.193-.5,18.216Zm38.278-.31a13.406,13.406,0,0,1-8.2.915l-14.51-4.072a6.538,6.538,0,0,0-4.875.533l-1.245.667.334-12.112a13,13,0,0,1,13.206-.7l.87.451a11.409,11.409,0,0,0,4.91,1.268l8.553.236a5.187,5.187,0,0,1,4.93,4.133l-12.74-.351a1.183,1.183,0,0,0-.065,2.365l14.059.387h.034a1.184,1.184,0,0,0,1.182-1.151,7.532,7.532,0,0,0-.115-1.534l9.5-4.49.028-.013a3.612,3.612,0,0,1,4.086.571Zm0,0" transform="translate(-425.001 -525.121)" fill="#b79167"/>
      </g>
    </g>
  </g>
</svg>
