<svg xmlns="http://www.w3.org/2000/svg" width="73.527" height="50.126" viewBox="0 0 73.527 50.126">
  <g id="Group_162" data-name="Group 162" transform="translate(-443 -378)">
    <path id="Path_517" data-name="Path 517" d="M734.676,573.84a6.792,6.792,0,0,0-4.79,1.976,6.652,6.652,0,0,0,0,9.523,6.817,6.817,0,0,0,4.79,1.976,6.738,6.738,0,0,0,0-13.475Zm0,10.48a3.743,3.743,0,1,1,0-7.486,3.743,3.743,0,0,1,0,7.486Zm0,0" transform="translate(-231.564 -159.189)" fill="#b79167"/>
    <path id="Path_518" data-name="Path 518" d="M729.259,452.23a1.452,1.452,0,0,0-1-.39h-7.681a1.5,1.5,0,0,0-1.5,1.5v12.277a1.5,1.5,0,0,0,1.5,1.5h12.187a1.5,1.5,0,0,0,1.5-1.5v-8.22a1.5,1.5,0,0,0-.494-1.108Zm2.006,11.887h-9.193v-9.3h5.6l3.593,3.233Zm0,0" transform="translate(-224.411 -60.021)" fill="#b79167"/>
    <path id="Path_519" data-name="Path 519" d="M539.317,573.84a6.794,6.794,0,0,0-4.791,1.976,6.654,6.654,0,0,0,0,9.523,6.819,6.819,0,0,0,4.791,1.976,6.738,6.738,0,0,0,0-13.475Zm0,10.48a3.743,3.743,0,1,1,0-7.486,3.743,3.743,0,0,1,0,7.486Zm0,0" transform="translate(-72.767 -159.189)" fill="#b79167"/>
    <path id="Path_520" data-name="Path 520" d="M489.4,559.878h-3.01V555.9a1.5,1.5,0,1,0-2.994,0v5.48a1.5,1.5,0,0,0,1.5,1.5H489.4a1.5,1.5,0,1,0,0-2.994Zm0,0" transform="translate(-32.838 -143.385)" fill="#b79167"/>
    <path id="Path_521" data-name="Path 521" d="M464.155,533.575a1.5,1.5,0,0,0-1.5-1.5H444.5a1.5,1.5,0,1,0,0,2.994h18.161a1.492,1.492,0,0,0,1.5-1.5Zm0,0" transform="translate(0 -125.243)" fill="#b79167"/>
    <path id="Path_522" data-name="Path 522" d="M460.8,498.193l18.161.105a1.512,1.512,0,0,0,1.512-1.483,1.482,1.482,0,0,0-1.482-1.512l-18.161-.105h-.015a1.5,1.5,0,0,0-.015,2.994Zm0,0" transform="translate(-13.265 -95.265)" fill="#b79167"/>
    <path id="Path_523" data-name="Path 523" d="M477.056,461.873h18.161a1.5,1.5,0,1,0,0-2.994H477.056a1.5,1.5,0,0,0,0,2.994Zm0,0" transform="translate(-26.466 -65.743)" fill="#b79167"/>
    <path id="Path_524" data-name="Path 524" d="M548.811,394.109l-10.72-8.878a1.475,1.475,0,0,0-.958-.344H524.526V379.5a1.5,1.5,0,0,0-1.5-1.5H484.9a1.5,1.5,0,0,0-1.5,1.5v10.959a1.5,1.5,0,0,0,2.994,0v-9.462h35.154v35.5H509.27a1.5,1.5,0,0,0,0,2.994h18.28a1.5,1.5,0,1,0,0-2.994h-3.01V387.882h12.067l9.762,8.085-.1,20.5h-1.557a1.5,1.5,0,0,0,0,2.994h3.039a1.488,1.488,0,0,0,1.5-1.482l.12-22.7a1.582,1.582,0,0,0-.553-1.168Zm0,0" transform="translate(-32.838)" fill="#b79167"/>
  </g>
</svg>
