<svg xmlns="http://www.w3.org/2000/svg" xmlns:xlink="http://www.w3.org/1999/xlink" width="30.38" height="30.534" viewBox="0 0 30.38 30.534">
  <defs>
    <clipPath id="clip-path">
      <rect id="Rectangle_182" data-name="Rectangle 182" width="30.38" height="30.534" fill="#b79167"/>
    </clipPath>
  </defs>
  <g id="Group_230" data-name="Group 230" transform="translate(-450 -322)">
    <g id="Group_173" data-name="Group 173" transform="translate(450 322)">
      <g id="Group_172" data-name="Group 172" transform="translate(0 0)" clip-path="url(#clip-path)">
        <path id="Path_536" data-name="Path 536" d="M473.992,361.867a2.99,2.99,0,0,0-2.168-.994,3.089,3.089,0,0,0-2.193.988l-2.027,2.02c-.167-.09-.334-.173-.494-.256-.231-.116-.449-.225-.635-.34a22.028,22.028,0,0,1-5.278-4.81,13,13,0,0,1-1.731-2.732c.526-.481,1.013-.982,1.488-1.462.18-.179.359-.365.539-.545a2.943,2.943,0,0,0,0-4.438l-1.751-1.751c-.2-.2-.4-.4-.6-.609-.385-.4-.789-.808-1.206-1.193a3.036,3.036,0,0,0-2.149-.943,3.141,3.141,0,0,0-2.18.943l-.013.013-2.181,2.2a4.692,4.692,0,0,0-1.392,2.982,11.244,11.244,0,0,0,.821,4.759,27.613,27.613,0,0,0,4.906,8.184,30.181,30.181,0,0,0,10.05,7.869,15.657,15.657,0,0,0,5.644,1.667c.135.007.276.013.4.013a4.831,4.831,0,0,0,3.7-1.591c.006-.013.019-.019.026-.032a14.536,14.536,0,0,1,1.122-1.161c.276-.263.558-.539.834-.827a3.2,3.2,0,0,0,.968-2.219,3.083,3.083,0,0,0-.987-2.2Zm2.3,6.753c-.007,0-.007.007,0,0-.25.27-.507.513-.783.783a16.839,16.839,0,0,0-1.238,1.283,3.092,3.092,0,0,1-2.412,1.02c-.1,0-.2,0-.295-.006a13.915,13.915,0,0,1-5-1.5,28.493,28.493,0,0,1-9.466-7.414,26.042,26.042,0,0,1-4.617-7.69,9.156,9.156,0,0,1-.718-4.015,2.943,2.943,0,0,1,.885-1.9l2.187-2.187a1.458,1.458,0,0,1,.975-.455,1.373,1.373,0,0,1,.936.449l.019.019c.391.366.763.744,1.155,1.148.2.205.4.411.609.622l1.751,1.751a1.224,1.224,0,0,1,0,1.988c-.186.186-.365.372-.551.551-.539.551-1.052,1.065-1.61,1.565-.013.013-.026.019-.032.032a1.309,1.309,0,0,0-.334,1.456l.02.058a14.061,14.061,0,0,0,2.071,3.38l.006.006a23.54,23.54,0,0,0,5.695,5.182,8.664,8.664,0,0,0,.789.43c.231.116.449.225.635.34.026.013.051.032.077.045a1.39,1.39,0,0,0,.635.16,1.371,1.371,0,0,0,.975-.442l2.193-2.193a1.451,1.451,0,0,1,.969-.481,1.305,1.305,0,0,1,.923.468l3.547,3.546a1.268,1.268,0,0,1,.007,2.007Zm0,0" transform="translate(-449.999 -342.973)" fill="#b79167"/>
        <path id="Path_537" data-name="Path 537" d="M646.391,393.332a8.254,8.254,0,0,1,6.721,6.721.86.86,0,0,0,.853.718,1.183,1.183,0,0,0,.148-.013.867.867,0,0,0,.712-1,9.981,9.981,0,0,0-8.132-8.132.871.871,0,0,0-1,.706.857.857,0,0,0,.7,1Zm0,0" transform="translate(-629.992 -386.033)" fill="#b79167"/>
        <path id="Path_538" data-name="Path 538" d="M663.143,336.279a16.433,16.433,0,0,0-13.391-13.391.865.865,0,1,0-.282,1.706,14.679,14.679,0,0,1,11.967,11.967.86.86,0,0,0,.853.718,1.118,1.118,0,0,0,.147-.013.849.849,0,0,0,.705-.988Zm0,0" transform="translate(-632.813 -322.805)" fill="#b79167"/>
      </g>
    </g>
  </g>
</svg>
