<svg xmlns="http://www.w3.org/2000/svg" width="23.25" height="33.067" viewBox="0 0 23.25 33.067">
  <g id="Group_229" data-name="Group 229" transform="translate(-76)">
    <path id="Path_534" data-name="Path 534" d="M87.625,0a11.627,11.627,0,0,0-9.89,17.738l9.228,14.871a.969.969,0,0,0,.823.458h.008a.969.969,0,0,0,.823-.471L97.61,17.581A11.627,11.627,0,0,0,87.625,0Zm8.323,16.586L87.772,30.237l-8.39-13.52a9.694,9.694,0,1,1,16.566-.131Z" transform="translate(0 0)" fill="#b79167"/>
    <path id="Path_535" data-name="Path 535" d="M171.914,90C168.653,90,166,93.417,166,97.617c0,4.173,2.61,7.617,5.914,7.617,3.345,0,5.914-3.49,5.914-7.617C177.828,93.417,175.175,90,171.914,90Zm0,12.711c-2.185,0-3.956-2.288-3.956-5.095s1.782-5.095,3.956-5.095,3.949,2.295,3.949,5.095C175.863,100.383,174.134,102.711,171.914,102.711Z" transform="translate(-84.289 -85.166)" fill="#b79167"/>
  </g>
</svg>
