<svg xmlns="http://www.w3.org/2000/svg" width="29.72" height="27.768" viewBox="0 0 29.72 27.768">
  <path id="Path_550" data-name="Path 550" d="M29.7,27.308a.439.439,0,0,0-.027-.151.758.758,0,0,0-.3-.423l-4.254-2.957v-3.17a.761.761,0,0,0-.761-.761H19.461L15.3,16.95a.761.761,0,0,0-.867,0l-4.191,2.9H5.365a.761.761,0,0,0-.761.761V23.74L.329,26.694A.76.76,0,0,0,0,27.31s0,.009,0,.013l.023,16.5a.761.761,0,0,0,.761.76h0l28.175-.039a.761.761,0,0,0,.76-.762ZM10.734,35.14,1.543,42.27,1.524,28.775Zm4.137-1.283,11.818,9.167-23.678.033Zm4.118,1.268,9.187-6.387L28.2,42.266Zm8.559-7.8-2.432,1.691V25.631ZM14.861,18.5l1.934,1.344H12.916Zm8.733,2.866v8.7l-5.865,4.077-2.391-1.855-.011-.007a.761.761,0,0,0-.923.007L12,34.161,6.126,30.1V21.368ZM4.6,29.052,2.1,27.321,4.6,25.59Z" transform="translate(0 -16.814)" fill="#b79167"/>
</svg>
