<svg xmlns="http://www.w3.org/2000/svg" width="30.18" height="27" viewBox="0 0 30.18 27">
  <g id="Group_236" data-name="Group 236" transform="translate(-70 -89.6)">
    <path id="Path_554" data-name="Path 554" d="M95.962,89.6H74.219A3.923,3.923,0,0,0,70,93.819V108.4a3.923,3.923,0,0,0,4.219,4.219h8.048V115.3H80.93a.649.649,0,1,0,0,1.3H89.5a.649.649,0,1,0,0-1.3H87.913v-2.687h8.048a3.923,3.923,0,0,0,4.219-4.219V93.819A3.923,3.923,0,0,0,95.962,89.6Zm-9.346,25.7h-3.05v-2.687h3.05ZM98.882,108.4a2.68,2.68,0,0,1-2.921,2.921H74.219A2.68,2.68,0,0,1,71.3,108.4v-.928H98.882Zm0-2.22H71.3V93.845a2.68,2.68,0,0,1,2.921-2.921H95.962a2.68,2.68,0,0,1,2.921,2.921Z" fill="#b79167"/>
    <path id="Path_555" data-name="Path 555" d="M145.353,126.014l-4.842,6.49-2.272-2.953a.646.646,0,0,0-1-.032l-3.7,4.206-2.713-4.634a.647.647,0,0,0-1.11-.006l-4.478,7.237a.649.649,0,1,0,1.1.649l3.894-6.348,2.6,4.472a.649.649,0,0,0,1.045.1l3.777-4.225,2.317,3.012a.753.753,0,0,0,.519.253.649.649,0,0,0,.513-.26l5.355-7.185a.649.649,0,0,0-1.038-.78h.032Z" transform="translate(-50.618 -33.221)" fill="#b79167"/>
  </g>
</svg>
