<svg xmlns="http://www.w3.org/2000/svg" width="29.47" height="41.913" viewBox="0 0 29.47 41.913">
  <g id="Group_171" data-name="Group 171" transform="translate(-76)">
    <path id="Path_534" data-name="Path 534" d="M90.735,0A14.738,14.738,0,0,0,78.2,22.483L89.9,41.332a1.228,1.228,0,0,0,1.043.58h.01a1.228,1.228,0,0,0,1.044-.6l11.4-19.032A14.738,14.738,0,0,0,90.735,0Zm10.549,21.023-10.363,17.3L80.287,21.189a12.287,12.287,0,1,1,21-.166Z" transform="translate(0 0)" fill="#b79167"/>
    <path id="Path_535" data-name="Path 535" d="M173.117,90a7.634,7.634,0,1,0,7.117,7.617A7.388,7.388,0,0,0,173.117,90Zm0,12.711a5.107,5.107,0,1,1,4.752-5.095A4.94,4.94,0,0,1,173.117,102.711Z" transform="translate(-82.382 -82.768)" fill="#b79167"/>
  </g>
</svg>
