<svg xmlns="http://www.w3.org/2000/svg" width="40" height="37.373" viewBox="0 0 40 37.373">
  <path id="Path_533" data-name="Path 533" d="M39.969,30.938a.59.59,0,0,0-.037-.2,1.021,1.021,0,0,0-.4-.569L33.8,26.186V21.919a1.025,1.025,0,0,0-1.024-1.024H26.192L20.587,17a1.024,1.024,0,0,0-1.167,0l-5.641,3.9H7.221A1.024,1.024,0,0,0,6.2,21.919v4.217L.443,30.112A1.022,1.022,0,0,0,0,30.94c0,.006,0,.012,0,.018L.031,53.164a1.024,1.024,0,0,0,1.024,1.023h0l37.921-.052A1.024,1.024,0,0,0,40,53.109ZM14.447,41.479l-12.371,9.6L2.051,32.912Zm5.568-1.726L35.921,52.09l-31.868.044Zm5.543,1.707,12.365-8.6.025,18.208Zm11.519-10.5L33.8,33.231v-4.55ZM20,19.085l2.6,1.809h-5.22Zm11.754,3.858V34.656l-7.893,5.488-3.218-2.5-.014-.01a1.024,1.024,0,0,0-1.242.01l-3.242,2.514-7.9-5.46V22.943ZM6.2,33.285l-3.371-2.33L6.2,28.626Z" transform="translate(0 -16.814)" fill="#b79167"/>
</svg>
