<svg id="Group_173" data-name="Group 173" xmlns="http://www.w3.org/2000/svg" xmlns:xlink="http://www.w3.org/1999/xlink" width="37.361" height="37.55" viewBox="0 0 37.361 37.55">
  <defs>
    <clipPath id="clip-path">
      <rect id="Rectangle_182" data-name="Rectangle 182" width="37.361" height="37.55" fill="#b79167"/>
    </clipPath>
  </defs>
  <g id="Group_172" data-name="Group 172" transform="translate(0 0)" clip-path="url(#clip-path)">
    <path id="Path_536" data-name="Path 536" d="M479.506,365.788a3.677,3.677,0,0,0-2.666-1.222,3.8,3.8,0,0,0-2.7,1.215l-2.492,2.484c-.205-.111-.41-.213-.607-.315-.284-.142-.552-.276-.781-.418a27.089,27.089,0,0,1-6.491-5.915,15.984,15.984,0,0,1-2.129-3.36c.647-.592,1.246-1.207,1.83-1.8.221-.221.442-.449.663-.67a3.619,3.619,0,0,0,0-5.458l-2.154-2.153c-.244-.245-.5-.5-.733-.749-.473-.489-.97-.994-1.483-1.467a3.734,3.734,0,0,0-2.642-1.159,3.863,3.863,0,0,0-2.681,1.159l-.016.016-2.682,2.705a5.771,5.771,0,0,0-1.711,3.667,13.826,13.826,0,0,0,1.01,5.852,33.957,33.957,0,0,0,6.034,10.064,37.115,37.115,0,0,0,12.359,9.677,19.255,19.255,0,0,0,6.94,2.05c.166.008.339.016.5.016a5.942,5.942,0,0,0,4.551-1.956c.008-.016.024-.023.032-.039a17.87,17.87,0,0,1,1.38-1.428c.339-.324.686-.662,1.025-1.018a3.933,3.933,0,0,0,1.191-2.729,3.791,3.791,0,0,0-1.214-2.705Zm2.824,8.3c-.008,0-.008.008,0,0-.308.332-.623.631-.962.962a20.725,20.725,0,0,0-1.522,1.577,3.8,3.8,0,0,1-2.966,1.254c-.118,0-.245,0-.363-.008a17.11,17.11,0,0,1-6.152-1.845,35.04,35.04,0,0,1-11.641-9.117,32.024,32.024,0,0,1-5.678-9.457,11.259,11.259,0,0,1-.883-4.937,3.619,3.619,0,0,1,1.088-2.343l2.69-2.69a1.792,1.792,0,0,1,1.2-.56,1.689,1.689,0,0,1,1.151.552l.023.024c.481.45.939.915,1.42,1.412.245.253.5.5.749.765l2.153,2.153a1.505,1.505,0,0,1,0,2.445c-.229.229-.449.458-.678.678-.662.678-1.294,1.309-1.979,1.924-.016.016-.032.024-.04.039a1.61,1.61,0,0,0-.41,1.79l.024.071a17.288,17.288,0,0,0,2.547,4.156l.008.008a28.95,28.95,0,0,0,7,6.373,10.657,10.657,0,0,0,.97.528c.284.142.552.276.781.418.032.016.063.039.095.055a1.71,1.71,0,0,0,.781.2,1.686,1.686,0,0,0,1.2-.544l2.7-2.7a1.784,1.784,0,0,1,1.191-.592,1.6,1.6,0,0,1,1.136.576l4.361,4.361a1.559,1.559,0,0,1,.008,2.469Zm0,0" transform="translate(-449.999 -342.553)" fill="#b79167"/>
    <path id="Path_537" data-name="Path 537" d="M646.555,393.726a10.151,10.151,0,0,1,8.266,8.266,1.058,1.058,0,0,0,1.049.883,1.458,1.458,0,0,0,.181-.016,1.066,1.066,0,0,0,.875-1.23,12.274,12.274,0,0,0-10-10,1.071,1.071,0,0,0-1.23.868,1.053,1.053,0,0,0,.86,1.23Zm0,0" transform="translate(-626.387 -384.751)" fill="#b79167"/>
    <path id="Path_538" data-name="Path 538" d="M666.451,339.359a20.209,20.209,0,0,0-16.468-16.468,1.063,1.063,0,1,0-.347,2.1,18.052,18.052,0,0,1,14.717,14.717,1.058,1.058,0,0,0,1.049.883,1.371,1.371,0,0,0,.181-.016,1.045,1.045,0,0,0,.868-1.215Zm0,0" transform="translate(-629.152 -322.788)" fill="#b79167"/>
  </g>
</svg>
