<svg id="Group_252" data-name="Group 252" xmlns="http://www.w3.org/2000/svg" width="261.261" height="147.441" viewBox="0 0 261.261 147.441">
  <path id="Path_486" data-name="Path 486" d="M55.637,126.879H73.6c-.015-1.053-.044-2.517-.089-4.484-.062-1.814-.091-3.226-.091-4.25H76.8a26.5,26.5,0,0,0,1.925,8.734h31.028c0-.114.029-.209.029-.316a9.077,9.077,0,0,0-2.761-6.833q-2.757-2.681-10.14-5.176-.9-.3-2.759-.877Q84.7,110.628,80.7,107.9a16.915,16.915,0,0,1-5.62-5.852,16.085,16.085,0,0,1-1.762-7.768,16.7,16.7,0,0,1,6.239-13.66q6.233-5.076,16.85-5.082a35.351,35.351,0,0,1,9.875,1.339,29.8,29.8,0,0,1,8.64,4.047l.759-3.5h2.906c-.065,1.865-.12,3.52-.165,4.948s-.073,2.63-.073,3.593q0,2.19.073,4.642c.045,1.636.1,3.4.165,5.3H115.5q-.858-8.067-5.405-12.374-4.542-4.324-12.115-4.314a14.171,14.171,0,0,0-9.521,3.131A10.143,10.143,0,0,0,84.8,90.425a9.08,9.08,0,0,0,2.643,6.789q2.648,2.594,11.684,5.692,13.851,4.784,18.087,8.936a14.525,14.525,0,0,1,4.243,10.859,18.945,18.945,0,0,1-.463,4.177h18.156V0H55.637Z" transform="translate(-55.637)" fill="#fff"/>
  <path id="Path_487" data-name="Path 487" d="M146.391,46.823h-.421L128.076,88.657h17.732a11.429,11.429,0,0,0,.5-3.761Z" transform="translate(3.493 38.22)" fill="#fff"/>
  <path id="Path_488" data-name="Path 488" d="M113.762,46.823l-.423,36.407v.888a11.653,11.653,0,0,0,.687,4.539h18.054L114.349,46.823Z" transform="translate(-8.536 38.22)" fill="#fff"/>
  <path id="Path_489" data-name="Path 489" d="M104.376,126.879h11.835a15.426,15.426,0,0,0,.716-5.149l.507-34.674v-.349c0-1.526-.4-2.517-1.2-2.961s-2.8-.694-5.99-.737V80.143c2.254.12,4.152.205,5.67.263s2.837.085,3.938.085c1.017,0,2.316-.024,3.894-.085s3.754-.143,6.522-.263l16.848,39.649L164,80.143q3.9.18,5.99.263c1.4.062,2.517.085,3.364.085,1.186,0,2.583-.024,4.192-.085s3.629-.143,6.055-.263v2.866c-3.05.044-4.995.365-5.847.979s-1.27,2.209-1.27,4.8v34.333a12.218,12.218,0,0,0,.463,3.761h10.929V0h-83.5Z" transform="translate(-15.852)" fill="#fff"/>
  <path id="Path_490" data-name="Path 490" d="M190.009,77,174.572,58.861l-4.359,2.881V74.864a11.29,11.29,0,0,0,.554,3.969H191.2c-.047-.107-.038-.173-.093-.287a13.361,13.361,0,0,0-1.1-1.549" transform="translate(37.889 48.046)" fill="#fff"/>
  <path id="Path_491" data-name="Path 491" d="M237.008,0h-83.5V126.88H172.1a11.5,11.5,0,0,0,.547-3.969V88.11q0-4.108-1.275-5.116c-.846-.676-2.866-1.032-6.054-1.082V78.985c.886.031,2.152.078,3.791.151q6.637.294,8.838.287,2.806,0,10.307-.331c1.288-.04,2.269-.076,2.93-.107v2.926q-4.7,0-6.012,1.082c-.874.723-1.319,2.428-1.319,5.116v18.177A130.909,130.909,0,0,0,199.7,92.245q6.533-6.942,6.528-8.778a1.463,1.463,0,0,0-1.073-1.451,16.007,16.007,0,0,0-4.486-.392V78.985q3.452.183,5.732.28t3.969.087q1.684,0,4.032-.087c1.571-.064,3.6-.158,6.1-.28v2.639a21.487,21.487,0,0,0-4.7.594,8.629,8.629,0,0,0-2.98,1.571q-1.122.815-6.9,6.758T195.45,101.056l20.831,23.851a15.478,15.478,0,0,0,2.047,1.972h18.68Z" transform="translate(24.253 0.001)" fill="#fff"/>
  <path id="Path_578" data-name="Path 578" d="M.917,6.688H2.824V.288h1.8c1.731.066,2.52.833,2.959,2.871a19.135,19.135,0,0,0,.986,3.528h1.972A23.508,23.508,0,0,1,9.4,2.633C9.048,1.1,8.368.047,7.229-.347V-.413a3.878,3.878,0,0,0,2.783-3.769A3.679,3.679,0,0,0,8.85-6.987C7.93-7.82,6.615-8.193,4.577-8.193a19.86,19.86,0,0,0-3.66.307ZM2.824-6.549a7.844,7.844,0,0,1,1.885-.175c2.016.022,3.4.855,3.4,2.761,0,1.687-1.293,2.805-3.331,2.805H2.824Z" transform="translate(2.776 140.512)" fill="#fff"/>
  <path id="Path_579" data-name="Path 579" d="M8.565-1.865H2.824V-6.533H8.894v-1.6H.917V6.638H9.223v-1.6h-6.4V-.287H8.565Z" transform="translate(21.536 140.561)" fill="#fff"/>
  <path id="Path_580" data-name="Path 580" d="M.507,6.023a7.633,7.633,0,0,0,3.769.942c3.485,0,5.172-1.972,5.172-4.252,0-2.17-1.271-3.375-3.769-4.339C3.641-2.414,2.742-3.093,2.742-4.474c0-1.008.767-2.213,2.783-2.213a5.883,5.883,0,0,1,2.805.7l.526-1.556a6.712,6.712,0,0,0-3.265-.723C2.72-8.265.814-6.556.814-4.255c0,2.082,1.49,3.331,3.9,4.186C6.709.7,7.5,1.487,7.5,2.868c0,1.49-1.14,2.52-3.09,2.52A6.757,6.757,0,0,1,.989,4.424Z" transform="translate(38.951 140.453)" fill="#fff"/>
  <path id="Path_581" data-name="Path 581" d="M7.294-8.265C3.349-8.265.434-5.2.434-.507c0,4.471,2.739,7.495,6.64,7.495,3.769,0,6.859-2.7,6.859-7.78C13.934-5.175,11.326-8.265,7.294-8.265ZM7.206-6.709c3.178,0,4.712,3.068,4.712,6,0,3.353-1.709,6.136-4.734,6.136-3,0-4.712-2.827-4.712-5.983C2.472-3.795,4.05-6.709,7.206-6.709Z" transform="translate(56.667 140.453)" fill="#fff"/>
  <path id="Path_582" data-name="Path 582" d="M.9-8.132v8.7c0,4.58,2.279,6.312,5.3,6.312,3.2,0,5.588-1.863,5.588-6.4V-8.132H9.868V.612c0,3.265-1.4,4.712-3.594,4.712-1.972,0-3.441-1.4-3.441-4.712V-8.132Z" transform="translate(79.119 140.561)" fill="#fff"/>
  <path id="Path_583" data-name="Path 583" d="M.917,6.688H2.824V.288h1.8c1.731.066,2.52.833,2.959,2.871a19.135,19.135,0,0,0,.986,3.528h1.972A23.508,23.508,0,0,1,9.4,2.633C9.048,1.1,8.368.047,7.229-.347V-.413a3.878,3.878,0,0,0,2.783-3.769A3.679,3.679,0,0,0,8.85-6.987C7.93-7.82,6.615-8.193,4.577-8.193a19.86,19.86,0,0,0-3.66.307ZM2.824-6.549a7.844,7.844,0,0,1,1.885-.175c2.016.022,3.4.855,3.4,2.761,0,1.687-1.293,2.805-3.331,2.805H2.824Z" transform="translate(100.278 140.512)" fill="#fff"/>
  <path id="Path_584" data-name="Path 584" d="M11.239,4.752a7.632,7.632,0,0,1-3.112.614c-3.594,0-5.676-2.323-5.676-5.939,0-3.879,2.3-6.092,5.764-6.092a6.945,6.945,0,0,1,2.98.614l.46-1.556a7.918,7.918,0,0,0-3.506-.657A7.351,7.351,0,0,0,.434-.507c0,4.843,3.134,7.473,7.3,7.473a9.464,9.464,0,0,0,3.9-.7Z" transform="translate(118.709 140.453)" fill="#fff"/>
  <path id="Path_585" data-name="Path 585" d="M8.565-1.865H2.824V-6.533H8.894v-1.6H.917V6.638H9.223v-1.6h-6.4V-.287H8.565Z" transform="translate(138.784 140.561)" fill="#fff"/>
  <path id="Path_586" data-name="Path 586" d="M.507,6.023a7.633,7.633,0,0,0,3.769.942c3.485,0,5.172-1.972,5.172-4.252,0-2.17-1.271-3.375-3.769-4.339C3.641-2.414,2.742-3.093,2.742-4.474c0-1.008.767-2.213,2.783-2.213a5.883,5.883,0,0,1,2.805.7l.526-1.556a6.712,6.712,0,0,0-3.265-.723C2.72-8.265.814-6.556.814-4.255c0,2.082,1.49,3.331,3.9,4.186C6.709.7,7.5,1.487,7.5,2.868c0,1.49-1.14,2.52-3.09,2.52A6.757,6.757,0,0,1,.989,4.424Z" transform="translate(156.2 140.453)" fill="#fff"/>
  <path id="Path_587" data-name="Path 587" d="M.917-8.132V6.638H2.824V-8.132Z" transform="translate(186.386 140.561)" fill="#fff"/>
  <path id="Path_588" data-name="Path 588" d="M2.714,6.638V.327c0-2.454-.044-4.23-.153-6.092l.066-.022A46.883,46.883,0,0,0,5.388-.857l4.69,7.495h1.929V-8.132h-1.8v6.18c0,2.3.044,4.1.219,6.07l-.044.022a41.812,41.812,0,0,0-2.652-4.8L3-8.132H.917V6.638Z" transform="translate(198.593 140.561)" fill="#fff"/>
  <path id="Path_589" data-name="Path 589" d="M4.481,6.638H6.409V-6.511h4.515V-8.132H-.012v1.622H4.481Z" transform="translate(219.224 140.561)" fill="#fff"/>
  <path id="Path_590" data-name="Path 590" d="M1.7-8.068A31.026,31.026,0,0,1,.41-2.918l1.227-.153A25.282,25.282,0,0,0,3.7-8.265Z" transform="translate(238.175 140.453)" fill="#fff"/>
  <path id="Path_591" data-name="Path 591" d="M.917,6.638H9.135v-1.6H2.824V-8.132H.917Z" transform="translate(250.095 140.561)" fill="#fff"/>
</svg>
